<?xml version="1.0" encoding="UTF-8"?>
<svg id="Capa_1" data-name="Capa 1" xmlns="http://www.w3.org/2000/svg" viewBox="0 0 546.48 734.36">
  <defs>
    <style>
      .cls-1 {
        fill: #f08c00;
      }

      .cls-2 {
        fill: #161616;
      }
    </style>
  </defs>
  <ellipse class="cls-2" cx="273.24" cy="552.96" rx="273.24" ry="97.2"/>
  <path class="cls-2" d="M0,552.92H546.48c0,100.14-81.3,181.44-181.44,181.44H181.44C81.3,734.36,0,653.06,0,552.92H0Z"/>
  <ellipse class="cls-1" cx="273.24" cy="535.68" rx="222.01" ry="43.27"/>
  <path class="cls-2" d="M188.89,489.04c-89.68,89.68-112.38,148.18-118.39,149.04-.36,.05-10.73-50.09-10.48-50.34l83.2-105.26c.07-.07,15.48,6.57,15.58,6.57h102.6c.34,0,.51,.41,.27,.65l-86.26,127.66c28.8,2.47-16.28,9.55-33,9.42-7.34-.06-14.23-3.58-18.82-9.31l-5.1-6.38c-.34,0-.51-.4-.27-.65l107.13-130.2c.07-.07,18.23,.16,18.33,.16h108.67c.3,0,9.96-1.85,9.8-1.6l-84.24,159.28c-.09,.15-23.27-.04-23.44-.1l-30.59-10.55c-.23-.08-.33-.34-.21-.55l79.44-154.05c.09-.16,13.31-5.03,13.48-4.97l123.32,30.38c.2,.07,.08,8.66,0,8.86l-53.28,127.22c24.86,18.8,1.6,7.92,1.44,7.92l-71.16-4.16c-.28,0-.46-.29-.35-.54l72-159.82"/>
  <path class="cls-2" d="M449.28,0c-5.76,5.04-119.52,226.8-119.52,226.8l-20.88,7.2-98.64,190.8,108-166.32-70.56,172.8,97.2-181.44,.72-20.16L473.04,0h-23.76Z"/>
</svg>